HIERARCHY
ROOT Hips
{
	OFFSET -3.958830 18.904000 13.208200
	CHANNELS 6 Xposition Yposition Zposition Zrotation Yrotation Xrotation 
	JOINT LHipJoint
	{
		OFFSET 0.000000 0.000000 0.000000
		CHANNELS 3 Zrotation Yrotation Xrotation
		JOINT LeftUpLeg
		{
			OFFSET 1.800000 -1.400000 0.085000
			CHANNELS 3 Zrotation Yrotation Xrotation
			JOINT LeftLeg
			{
				OFFSET 2.215000 -6.000000 0.000000
				CHANNELS 3 Zrotation Yrotation Xrotation
				JOINT LeftFoot
				{
					OFFSET 2.500000 -6.900000 0.000000
					CHANNELS 3 Zrotation Yrotation Xrotation
					JOINT LeftToeBase
					{
						OFFSET 0.200000 -0.500000 1.950000
						CHANNELS 3 Zrotation Yrotation Xrotation
						End Site
						{
							OFFSET 0.000000 0.000000 0.000000
						}
					}
				}
			}
		}
	}
	JOINT RHipJoint
	{
		OFFSET 0.000000 0.000000 0.000000
		CHANNELS 3 Zrotation Yrotation Xrotation
		JOINT RightUpLeg
		{
			OFFSET -1.800000 -1.400000 0.085000
			CHANNELS 3 Zrotation Yrotation Xrotation
			JOINT RightLeg
			{
				OFFSET -2.215000 -6.000000 0.000000
				CHANNELS 3 Zrotation Yrotation Xrotation
				JOINT RightFoot
				{
					OFFSET -2.500000 -6.900000 0.000000
					CHANNELS 3 Zrotation Yrotation Xrotation
					JOINT RightToeBase
					{
						OFFSET -0.200000 -0.500000 1.950000
						CHANNELS 3 Zrotation Yrotation Xrotation
						End Site
						{
							OFFSET 0.000000 0.000000 0.000000
						}
					}
				}
			}
		}
	}
	JOINT LowerBack
	{
		OFFSET 0.000000 0.000000 0.000000
		CHANNELS 3 Zrotation Yrotation Xrotation
		JOINT Spine
		{
			OFFSET -0.087000 1.940000 -0.288900
			CHANNELS 3 Zrotation Yrotation Xrotation
			JOINT Spine1
			{
				OFFSET 0.000000 1.950000 0.060000
				CHANNELS 3 Zrotation Yrotation Xrotation
				JOINT Neck
				{
					OFFSET 0.000000 0.000000 0.000000
					CHANNELS 3 Zrotation Yrotation Xrotation
					JOINT Neck1
					{
						OFFSET 0.000000 1.600000 0.340000
						CHANNELS 3 Zrotation Yrotation Xrotation
						JOINT Head
						{
							OFFSET 0.000000 1.667000 -0.240000
							CHANNELS 3 Zrotation Yrotation Xrotation
							End Site
							{
								OFFSET 0.000000 0.000000 0.000000
							}
						}
					}
				}
				JOINT LeftShoulder
				{
					OFFSET 0.000000 0.000000 0.000000
					CHANNELS 3 Zrotation Yrotation Xrotation
					JOINT LeftArm
					{
						OFFSET 2.700000 1.550000 -0.730000
						CHANNELS 3 Zrotation Yrotation Xrotation
						JOINT LeftForeArm
						{
							OFFSET 5.450000 0.000000 0.000000
							CHANNELS 3 Zrotation Yrotation Xrotation
							JOINT LeftHand
							{
								OFFSET 3.450000 0.000000 0.000000
								CHANNELS 3 Zrotation Yrotation Xrotation
								JOINT LeftHandIndex1
								{
									OFFSET 0.750000 0.000000 0.000000
									CHANNELS 3 Zrotation Yrotation Xrotation
									End Site
									{
										OFFSET 0.000000 0.000000 0.000000
									}
								}
							}
						}
					}
				}
				JOINT RightShoulder
				{
					OFFSET 0.000000 0.000000 0.000000
					CHANNELS 3 Zrotation Yrotation Xrotation
					JOINT RightArm
					{
						OFFSET -2.700000 1.550000 -0.730000
						CHANNELS 3 Zrotation Yrotation Xrotation
						JOINT RightForeArm
						{
							OFFSET -5.450000 0.000000 0.000000
							CHANNELS 3 Zrotation Yrotation Xrotation
							JOINT RightHand
							{
								OFFSET -3.450000 0.000000 0.000000
								CHANNELS 3 Zrotation Yrotation Xrotation
								JOINT RightHandIndex1
								{
									OFFSET -0.750000 0.000000 0.000000
									CHANNELS 3 Zrotation Yrotation Xrotation
									End Site
									{
										OFFSET 0.000000 0.000000 0.000000
									}
								}
							}
						}
					}
				}
			}
		}
	}
}
MOTION
Frames: 6
Frame Time: 0.016667
-3.150710 18.431550 0.118410 -5.448636 18.036740 -6.125520 -15.288987 13.199236 2.710591 8.989711 0.013276 -22.470486 -4.940689 5.783559 14.859523 -1.049691 4.002178 3.100544 0.129910 -0.018210 0.062410 18.118067 -11.168570 2.917707 -0.709949 -0.995260 2.371819 6.898974 -6.733659 16.494461 -0.682695 -4.926101 2.586648 0.169630 0.496360 0.267650 -3.494396 -1.325587 -7.304997 -6.556118 10.820273 19.676079 -3.815974 14.185083 24.438932 -4.128767 -1.160561 -13.092005 -7.252013 6.319654 52.290156 1.242110 7.064580 -13.384000 18.156370 -24.867630 4.064676 -5.420895 -32.121336 -4.643401 103.714457 -52.272329 -73.820194 -3.963358 1.975926 0.697640 0.217110 0.041240 0.050890 -11.231663 30.463448 13.169270 44.826901 28.388518 -10.236546 7.845517 73.874622 -4.113184 1.442057 -1.355894 -0.445520 0.512790 0.354040 -0.175460 
-3.159950 18.422710 0.126180 -4.958574 19.473341 -5.092991 -15.295659 13.148898 2.837900 8.324295 -0.578244 -23.574441 -5.102716 5.639597 14.815807 -1.061128 3.860376 3.143412 0.157750 0.014750 0.125270 18.105376 -11.154546 2.919252 -0.582545 -1.137940 1.885917 6.604705 -6.545612 15.694458 -0.690108 -4.738656 2.649057 0.174240 0.428000 0.229830 -3.500950 -1.334416 -7.377814 -7.007441 11.671577 20.971773 -1.470021 14.646802 24.161613 -5.448522 -1.054895 -13.267007 -7.565101 5.663267 53.701319 1.074210 7.565530 -14.927870 17.389718 -24.662479 4.030750 -5.603606 -31.644024 -4.774999 106.466941 -54.191806 -79.793601 -3.906641 1.940634 0.750100 0.160470 0.092190 0.040390 -7.864723 30.591523 13.947898 51.902358 27.104494 -9.889289 22.830946 71.639545 4.143509 1.651402 -1.418926 -0.451890 0.527410 0.315000 -0.203560 
-3.168780 18.394610 0.132550 -4.336697 20.609730 -3.618766 -15.295173 13.051946 3.020189 7.646745 -1.309560 -25.362768 -5.517266 5.657013 15.360287 -1.058160 3.813614 3.158541 0.144850 0.003610 0.129010 18.104310 -11.156160 2.889802 -0.286343 -1.114067 0.712837 5.958399 -6.294938 15.550216 -0.660277 -4.534173 2.722443 0.157330 0.416850 0.204010 -3.527791 -1.267652 -7.460899 -7.147587 12.367222 21.874448 -0.313237 15.085600 23.081619 -6.216021 -1.101157 -13.423820 -8.189802 5.350845 54.632483 1.755690 7.584540 -15.199790 16.679808 -23.972849 4.179090 -6.530959 -31.710150 -4.300906 109.567392 -55.575011 -85.803223 -3.892044 1.968682 0.780620 0.134250 0.109960 0.038180 -5.563078 30.003484 14.015315 57.319176 25.169625 -9.537532 34.647720 68.144749 9.822160 1.838004 -1.410228 -0.466010 0.547190 0.308960 -0.208610 
-3.177690 18.372300 0.125020 -3.878372 21.911501 -2.286124 -15.264789 12.891867 3.217549 6.877566 -2.131327 -27.617188 -5.536624 5.711329 16.706583 -1.040932 3.787967 3.159361 0.143170 -0.003340 0.140400 18.131225 -11.217959 2.872315 -0.106807 -0.980420 -0.705761 5.816145 -6.204357 15.771351 -0.637065 -4.373042 2.782989 0.135610 0.396050 0.184610 -3.656594 -0.983840 -7.591114 -6.357784 12.747797 23.288413 -0.279017 15.396680 21.609117 -6.526142 -1.008783 -13.790031 -8.411383 5.043649 56.052429 2.778320 7.546740 -15.109750 15.601968 -23.940418 4.393033 -6.392086 -31.109666 -4.076635 114.141295 -57.175203 -93.863675 -3.865222 2.105770 0.811060 0.103230 0.131080 0.039180 -3.715673 29.772008 14.035993 61.228288 23.064063 -10.244687 41.142577 64.412664 11.759069 1.960817 -1.389344 -0.467560 0.549780 0.293280 -0.213890 
-3.184490 18.348130 0.099790 -3.526838 22.416944 -1.310241 -15.227928 12.713692 3.415489 6.472370 -2.784380 -29.817572 -5.766113 5.982434 18.551591 -0.994534 3.888152 3.100905 0.143930 0.015570 0.135880 18.169779 -11.287212 2.831646 -0.115705 -0.772139 -2.085342 5.646230 -6.161987 16.479673 -0.618509 -4.267407 2.819275 0.126650 0.369960 0.175350 -3.791888 -0.653931 -7.706079 -5.277376 12.911141 24.762295 -0.832648 15.675177 20.350945 -6.439795 -1.135067 -14.013949 -8.807389 4.866043 56.620825 2.976220 7.486990 -15.454780 14.562939 -23.751223 4.622936 -6.857880 -30.304054 -4.172575 118.410105 -58.390205 -101.301582 -3.829397 2.289318 0.815710 0.080790 0.155840 0.040570 -2.740254 29.617040 13.878037 63.513487 21.941088 -11.030803 43.685187 61.923491 11.972529 2.021940 -1.383045 -0.448730 0.542380 0.279080 -0.205360 
-3.183320 18.333920 0.061310 -3.464360 22.936534 -0.830355 -15.173381 12.528807 3.577914 6.297888 -3.261382 -31.505124 -6.024923 6.216806 19.996565 -0.959273 3.998778 3.037132 0.164620 0.047680 0.159650 18.227366 -11.371703 2.802798 -0.027755 -0.522437 -3.282038 5.453191 -6.156747 17.506347 -0.621345 -4.207988 2.820861 0.129060 0.327600 0.176020 -3.986566 -0.263165 -7.825268 -3.491690 12.561816 26.588358 -2.028789 15.729171 19.369465 -6.150666 -1.259280 -14.139240 -9.101630 4.724432 56.844128 2.722180 7.515170 -16.506220 13.202721 -24.032515 4.585031 -7.074038 -29.774798 -4.548066 122.194391 -59.761649 -108.106262 -3.779195 2.454918 0.828050 0.049950 0.190990 0.036020 -1.959146 29.779212 13.801775 64.491192 21.266290 -11.996315 42.652179 60.643659 10.907594 2.037948 -1.378071 -0.425720 0.528990 0.259120 -0.205440 
